<mxfile host="app.diagrams.net" modified="2021-07-31T05:52:55.184Z" agent="5.0 (Windows NT 10.0; Win64; x64) AppleWebKit/537.36 (KHTML, like Gecko) Chrome/92.0.4515.107 Safari/537.36 Edg/92.0.902.55" etag="quOVo-XSqy9McP6EJrY8" version="14.8.4" type="github">
  <diagram id="us4i3Tbj8rjGoXgFAmOt" name="Page-1">
    <mxGraphModel dx="1422" dy="762" grid="1" gridSize="10" guides="1" tooltips="1" connect="1" arrows="1" fold="1" page="1" pageScale="1" pageWidth="827" pageHeight="1169" math="0" shadow="0">
      <root>
        <mxCell id="0" />
        <mxCell id="1" parent="0" />
        <mxCell id="nrgVJc-i8UdNosfU6WUw-1" value="游戏" style="rounded=0;whiteSpace=wrap;html=1;" vertex="1" parent="1">
          <mxGeometry y="40" width="120" height="60" as="geometry" />
        </mxCell>
        <mxCell id="nrgVJc-i8UdNosfU6WUw-2" value="oneSDK" style="rounded=0;whiteSpace=wrap;html=1;" vertex="1" parent="1">
          <mxGeometry x="160" y="40" width="120" height="60" as="geometry" />
        </mxCell>
        <mxCell id="nrgVJc-i8UdNosfU6WUw-3" value="渠道SDK" style="rounded=0;whiteSpace=wrap;html=1;" vertex="1" parent="1">
          <mxGeometry x="320" y="40" width="120" height="60" as="geometry" />
        </mxCell>
        <mxCell id="nrgVJc-i8UdNosfU6WUw-4" value="oneSDK服务端" style="rounded=0;whiteSpace=wrap;html=1;" vertex="1" parent="1">
          <mxGeometry x="480" y="40" width="120" height="60" as="geometry" />
        </mxCell>
        <mxCell id="nrgVJc-i8UdNosfU6WUw-5" value="游戏服务端" style="rounded=0;whiteSpace=wrap;html=1;" vertex="1" parent="1">
          <mxGeometry x="640" y="40" width="120" height="60" as="geometry" />
        </mxCell>
        <mxCell id="nrgVJc-i8UdNosfU6WUw-6" value="" style="endArrow=none;html=1;" edge="1" parent="1">
          <mxGeometry width="50" height="50" relative="1" as="geometry">
            <mxPoint x="60" y="760" as="sourcePoint" />
            <mxPoint x="59.5" y="100" as="targetPoint" />
          </mxGeometry>
        </mxCell>
        <mxCell id="nrgVJc-i8UdNosfU6WUw-7" value="" style="endArrow=none;html=1;" edge="1" parent="1">
          <mxGeometry width="50" height="50" relative="1" as="geometry">
            <mxPoint x="220" y="760" as="sourcePoint" />
            <mxPoint x="219.5" y="100" as="targetPoint" />
          </mxGeometry>
        </mxCell>
        <mxCell id="nrgVJc-i8UdNosfU6WUw-8" value="" style="endArrow=none;html=1;" edge="1" parent="1">
          <mxGeometry width="50" height="50" relative="1" as="geometry">
            <mxPoint x="380" y="760" as="sourcePoint" />
            <mxPoint x="379.5" y="100" as="targetPoint" />
          </mxGeometry>
        </mxCell>
        <mxCell id="nrgVJc-i8UdNosfU6WUw-9" value="" style="endArrow=none;html=1;" edge="1" parent="1">
          <mxGeometry width="50" height="50" relative="1" as="geometry">
            <mxPoint x="540" y="760" as="sourcePoint" />
            <mxPoint x="539.5" y="100" as="targetPoint" />
          </mxGeometry>
        </mxCell>
        <mxCell id="nrgVJc-i8UdNosfU6WUw-10" value="" style="endArrow=none;html=1;" edge="1" parent="1">
          <mxGeometry width="50" height="50" relative="1" as="geometry">
            <mxPoint x="700" y="760" as="sourcePoint" />
            <mxPoint x="699.5" y="100" as="targetPoint" />
          </mxGeometry>
        </mxCell>
        <mxCell id="nrgVJc-i8UdNosfU6WUw-13" value="" style="endArrow=classic;html=1;" edge="1" parent="1">
          <mxGeometry width="50" height="50" relative="1" as="geometry">
            <mxPoint x="60" y="160" as="sourcePoint" />
            <mxPoint x="220" y="160" as="targetPoint" />
          </mxGeometry>
        </mxCell>
        <mxCell id="nrgVJc-i8UdNosfU6WUw-14" value="调用登录方法" style="text;html=1;strokeColor=none;fillColor=none;align=center;verticalAlign=middle;whiteSpace=wrap;rounded=0;" vertex="1" parent="1">
          <mxGeometry x="90" y="140" width="90" height="20" as="geometry" />
        </mxCell>
        <mxCell id="nrgVJc-i8UdNosfU6WUw-15" value="调用渠道登录方法" style="text;html=1;strokeColor=none;fillColor=none;align=center;verticalAlign=middle;whiteSpace=wrap;rounded=0;" vertex="1" parent="1">
          <mxGeometry x="250" y="180" width="110" height="20" as="geometry" />
        </mxCell>
        <mxCell id="nrgVJc-i8UdNosfU6WUw-16" value="" style="endArrow=classic;html=1;" edge="1" parent="1">
          <mxGeometry width="50" height="50" relative="1" as="geometry">
            <mxPoint x="220" y="200" as="sourcePoint" />
            <mxPoint x="380" y="200" as="targetPoint" />
          </mxGeometry>
        </mxCell>
        <mxCell id="nrgVJc-i8UdNosfU6WUw-28" value="返回token" style="text;html=1;strokeColor=none;fillColor=none;align=center;verticalAlign=middle;whiteSpace=wrap;rounded=0;" vertex="1" parent="1">
          <mxGeometry x="250" y="220" width="110" height="20" as="geometry" />
        </mxCell>
        <mxCell id="nrgVJc-i8UdNosfU6WUw-30" value="" style="endArrow=classic;html=1;" edge="1" parent="1">
          <mxGeometry width="50" height="50" relative="1" as="geometry">
            <mxPoint x="220" y="280" as="sourcePoint" />
            <mxPoint x="540" y="280" as="targetPoint" />
          </mxGeometry>
        </mxCell>
        <mxCell id="nrgVJc-i8UdNosfU6WUw-31" value="将token传给服务端" style="text;html=1;strokeColor=none;fillColor=none;align=center;verticalAlign=middle;whiteSpace=wrap;rounded=0;" vertex="1" parent="1">
          <mxGeometry x="250" y="260" width="110" height="20" as="geometry" />
        </mxCell>
        <mxCell id="nrgVJc-i8UdNosfU6WUw-32" value="" style="endArrow=classic;html=1;" edge="1" parent="1">
          <mxGeometry width="50" height="50" relative="1" as="geometry">
            <mxPoint x="540" y="320" as="sourcePoint" />
            <mxPoint x="860" y="320" as="targetPoint" />
          </mxGeometry>
        </mxCell>
        <mxCell id="nrgVJc-i8UdNosfU6WUw-33" value="验证token" style="text;html=1;strokeColor=none;fillColor=none;align=center;verticalAlign=middle;whiteSpace=wrap;rounded=0;" vertex="1" parent="1">
          <mxGeometry x="570" y="300" width="110" height="20" as="geometry" />
        </mxCell>
        <mxCell id="nrgVJc-i8UdNosfU6WUw-35" value="渠道后端" style="rounded=0;whiteSpace=wrap;html=1;" vertex="1" parent="1">
          <mxGeometry x="800" y="40" width="120" height="60" as="geometry" />
        </mxCell>
        <mxCell id="nrgVJc-i8UdNosfU6WUw-36" value="" style="endArrow=none;html=1;" edge="1" parent="1">
          <mxGeometry width="50" height="50" relative="1" as="geometry">
            <mxPoint x="860" y="760" as="sourcePoint" />
            <mxPoint x="859.5" y="100" as="targetPoint" />
          </mxGeometry>
        </mxCell>
        <mxCell id="nrgVJc-i8UdNosfU6WUw-37" value="return" style="html=1;verticalAlign=bottom;endArrow=open;dashed=1;endSize=8;" edge="1" parent="1">
          <mxGeometry x="-1" y="797" relative="1" as="geometry">
            <mxPoint x="860" y="360" as="sourcePoint" />
            <mxPoint x="540" y="360" as="targetPoint" />
            <mxPoint x="730" y="-477" as="offset" />
          </mxGeometry>
        </mxCell>
        <mxCell id="nrgVJc-i8UdNosfU6WUw-38" value="返回用户唯一标识" style="text;html=1;strokeColor=none;fillColor=none;align=center;verticalAlign=middle;whiteSpace=wrap;rounded=0;" vertex="1" parent="1">
          <mxGeometry x="717" y="340" width="110" height="20" as="geometry" />
        </mxCell>
        <mxCell id="nrgVJc-i8UdNosfU6WUw-40" value="return" style="html=1;verticalAlign=bottom;endArrow=open;dashed=1;endSize=8;" edge="1" parent="1">
          <mxGeometry x="-1" y="797" relative="1" as="geometry">
            <mxPoint x="540" y="400" as="sourcePoint" />
            <mxPoint x="220" y="400" as="targetPoint" />
            <mxPoint x="730" y="-477" as="offset" />
          </mxGeometry>
        </mxCell>
        <mxCell id="nrgVJc-i8UdNosfU6WUw-41" value="返回osdk_ticket以及user_info" style="text;html=1;strokeColor=none;fillColor=none;align=center;verticalAlign=middle;whiteSpace=wrap;rounded=0;" vertex="1" parent="1">
          <mxGeometry x="330" y="380" width="190" height="20" as="geometry" />
        </mxCell>
        <mxCell id="nrgVJc-i8UdNosfU6WUw-43" value="返回登录结果" style="text;html=1;align=center;verticalAlign=middle;resizable=0;points=[];autosize=1;strokeColor=none;" vertex="1" parent="1">
          <mxGeometry x="95" y="420" width="90" height="20" as="geometry" />
        </mxCell>
        <mxCell id="nrgVJc-i8UdNosfU6WUw-44" value="" style="endArrow=classic;html=1;" edge="1" parent="1">
          <mxGeometry width="50" height="50" relative="1" as="geometry">
            <mxPoint x="60" y="480" as="sourcePoint" />
            <mxPoint x="700" y="480" as="targetPoint" />
          </mxGeometry>
        </mxCell>
        <mxCell id="nrgVJc-i8UdNosfU6WUw-45" value="验证osdk_ticket" style="text;html=1;align=center;verticalAlign=middle;resizable=0;points=[];autosize=1;strokeColor=none;" vertex="1" parent="1">
          <mxGeometry x="260" y="460" width="100" height="20" as="geometry" />
        </mxCell>
        <mxCell id="nrgVJc-i8UdNosfU6WUw-48" value="" style="endArrow=classic;html=1;" edge="1" parent="1">
          <mxGeometry relative="1" as="geometry">
            <mxPoint x="700" y="510" as="sourcePoint" />
            <mxPoint x="700" y="590" as="targetPoint" />
            <Array as="points">
              <mxPoint x="770" y="510" />
              <mxPoint x="770" y="590" />
            </Array>
          </mxGeometry>
        </mxCell>
        <mxCell id="nrgVJc-i8UdNosfU6WUw-52" value="根据oneSDK分配的SECRET KEY验证" style="text;html=1;align=center;verticalAlign=middle;resizable=0;points=[];autosize=1;strokeColor=none;rotation=0;" vertex="1" parent="1">
          <mxGeometry x="710" y="540" width="220" height="20" as="geometry" />
        </mxCell>
        <mxCell id="nrgVJc-i8UdNosfU6WUw-53" value="return" style="html=1;verticalAlign=bottom;endArrow=open;dashed=1;endSize=8;" edge="1" parent="1">
          <mxGeometry x="-1" y="797" relative="1" as="geometry">
            <mxPoint x="700" y="640" as="sourcePoint" />
            <mxPoint x="60" y="640" as="targetPoint" />
            <mxPoint x="730" y="-477" as="offset" />
          </mxGeometry>
        </mxCell>
        <mxCell id="nrgVJc-i8UdNosfU6WUw-54" value="返回osdk_uid" style="text;html=1;align=center;verticalAlign=middle;resizable=0;points=[];autosize=1;strokeColor=none;" vertex="1" parent="1">
          <mxGeometry x="580" y="620" width="90" height="20" as="geometry" />
        </mxCell>
      </root>
    </mxGraphModel>
  </diagram>
</mxfile>
